# xmcd
#
# Track frame offsets:
#	150
#	19067
#	29533
#	40853
#	54702
#	71101
#	86426
#	103973
#	122481
#	143507
#	163539
#	178110
#	190333
#	204066
#
# Disc length: 2857 seconds
#
# Revision: 0
# Processed by: cddbd v1.5.1PL0 Copyright (c) Steve Scherf et al.
# Submitted via: EasyCDDAExtractor 8.0.2.1
#
DISCID=bd0b270e
DTITLE=Various Artist - Finians Rainbow
DYEAR=1900
DGENRE=Musical
TTITLE0=Prelude (Main Title)
TTITLE1=This Time Of The Year
TTITLE2=How Are Things In Glocca Morra
TTITLE3=Look To The Rainbow
TTITLE4=If This Isn't Love
TTITLE5=Something Sort OF Grandish
TTITLE6=That Great Come And Get It Day
TTITLE7=Old Devil Moon
TTITLE8=When The Idle Poor Become The Idle Rich
TTITLE9=When I'm Not Near The Girl I Love
TTITLE10=Necessity
TTITLE11=Necessity
TTITLE12=The Begat
TTITLE13=How Are Things In Glocca Morra ? (Finale)
EXTD=
EXTT0=
EXTT1=
EXTT2=
EXTT3=
EXTT4=
EXTT5=
EXTT6=
EXTT7=
EXTT8=
EXTT9=
EXTT10=
EXTT11=
EXTT12=
EXTT13=
PLAYORDER=
